<svg aria-hidden="true" style="position: absolute; width: 0; height: 0; overflow: hidden;" version="1.1" xmlns="http://www.w3.org/2000/svg" xmlns:xlink="http://www.w3.org/1999/xlink">
<defs>
<symbol id="icon-search-1" viewBox="0 0 20 20">
<path d="M19.361 18.217l-4.76-4.951c1.224-1.455 1.894-3.285 1.894-5.191 0-4.452-3.622-8.075-8.075-8.075s-8.075 3.623-8.075 8.075c0 4.453 3.623 8.075 8.075 8.075 1.672 0 3.264-0.504 4.626-1.461l4.796 4.988c0.201 0.208 0.47 0.323 0.759 0.323 0.273 0 0.533-0.104 0.73-0.294 0.418-0.403 0.432-1.071 0.029-1.489zM8.42 2.107c3.291 0 5.968 2.677 5.968 5.968s-2.677 5.969-5.968 5.969c-3.291 0-5.968-2.677-5.968-5.969s2.677-5.968 5.968-5.968z"></path>
</symbol>
<symbol id="icon-Group-13" viewBox="0 0 19 20">
<path fill="none" stroke="#373d43" style="stroke: var(--color1, #373d43)" stroke-linejoin="miter" stroke-linecap="butt" stroke-miterlimit="4" stroke-width="1.1765" d="M0.588 1.902h5.882v5.882h-5.882v-5.882z"></path>
<path fill="none" stroke="#373d43" style="stroke: var(--color1, #373d43)" stroke-linejoin="miter" stroke-linecap="butt" stroke-miterlimit="4" stroke-width="1.1765" d="M0.588 12.49h5.882v5.882h-5.882v-5.882z"></path>
<path fill="none" stroke="#373d43" style="stroke: var(--color1, #373d43)" stroke-linejoin="miter" stroke-linecap="butt" stroke-miterlimit="4" stroke-width="1.1765" d="M10 12.49h5.882v5.882h-5.882v-5.882z"></path>
<path fill="#fbdd37" style="fill: var(--color2, #fbdd37); stroke: var(--color2, #fbdd37)" stroke="#fbdd37" stroke-linejoin="miter" stroke-linecap="butt" stroke-miterlimit="4" stroke-width="1.1765" d="M13.054 0.832l3.992 3.992-3.992 3.992-3.992-3.992 3.992-3.992z"></path>
</symbol>
<symbol id="icon-black-and-white-credit-cards" viewBox="0 0 19 20">
<path fill="#889099" style="fill: var(--color1, #889099)" d="M18.479 9.376l-8.613-8.853c-0.339-0.349-0.784-0.523-1.229-0.523s-0.89 0.175-1.229 0.523l-4.717 4.847c-0.679 0.698-0.679 1.85 0 2.548l0.782 0.825h1.803l-1.683-1.752c-0.118-0.122-0.135-0.274-0.135-0.347s0.017-0.22 0.135-0.342l0.623-0.62 2.96 3.062h2.839l-4.38-4.524 2.674-2.759c0.118-0.121 0.256-0.144 0.327-0.144s0.209 0.015 0.327 0.136l8.613 8.852c0.118 0.122 0.136 0.262 0.136 0.336s-0.031 0.215-0.149 0.336l-0.488 0.49v1.853l1.391-1.416c0.678-0.699 0.69-1.829 0.011-2.527z"></path>
<path fill="#889099" style="fill: var(--color1, #889099)" d="M14.438 9.573h-12.182c-0.96 0-1.78 0.794-1.78 1.781v4.736h15.678v-4.736c0-0.986-0.756-1.781-1.716-1.781zM4.734 14.477c-0.34 0-0.648-0.139-0.875-0.364-0.227 0.224-0.535 0.364-0.875 0.364-0.698 0-1.264-0.581-1.264-1.3s0.566-1.299 1.264-1.299c0.34 0 0.648 0.139 0.875 0.363 0.227-0.224 0.535-0.363 0.875-0.363 0.698 0 1.264 0.582 1.264 1.299s-0.566 1.3-1.264 1.3z"></path>
<path fill="#889099" style="fill: var(--color1, #889099)" d="M0.476 18.209c0 0.986 0.82 1.791 1.78 1.791h12.182c0.96 0 1.716-0.805 1.716-1.791v-0.105h-15.678v0.105z"></path>
</symbol>
<symbol id="icon-shopping-cart-black-shape" viewBox="0 0 20 20">
<path fill="#889099" style="fill: var(--color1, #889099)" d="M15.384 16.923c0 0.425 0.151 0.787 0.451 1.088s0.663 0.451 1.088 0.451c0.424 0 0.787-0.15 1.087-0.451s0.451-0.663 0.451-1.088-0.15-0.787-0.451-1.088c-0.3-0.3-0.663-0.451-1.087-0.451s-0.788 0.15-1.088 0.451c-0.3 0.301-0.451 0.663-0.451 1.088z"></path>
<path fill="#889099" style="fill: var(--color1, #889099)" d="M19.772 3.305c-0.152-0.152-0.332-0.228-0.541-0.228h-14.435c-0.008-0.056-0.026-0.158-0.054-0.306s-0.050-0.266-0.066-0.355c-0.016-0.088-0.046-0.194-0.090-0.318s-0.096-0.223-0.156-0.294c-0.060-0.072-0.14-0.134-0.24-0.187s-0.214-0.078-0.342-0.078h-3.077c-0.208 0-0.389 0.076-0.541 0.228s-0.228 0.333-0.228 0.541 0.076 0.389 0.228 0.541c0.152 0.152 0.333 0.228 0.541 0.228h2.452l2.127 9.892c-0.016 0.032-0.098 0.184-0.246 0.457s-0.266 0.511-0.354 0.715c-0.088 0.205-0.132 0.363-0.132 0.475 0 0.208 0.076 0.389 0.228 0.541s0.333 0.228 0.541 0.228h12.307c0.208 0 0.389-0.076 0.541-0.228s0.228-0.333 0.228-0.541c0-0.208-0.076-0.389-0.228-0.541s-0.332-0.229-0.541-0.229h-11.057c0.192-0.385 0.289-0.641 0.289-0.769 0-0.080-0.010-0.169-0.030-0.264s-0.044-0.202-0.072-0.319c-0.028-0.116-0.046-0.202-0.054-0.258l12.548-1.466c0.2-0.024 0.364-0.11 0.493-0.258s0.192-0.318 0.192-0.511v-6.154c-0-0.208-0.076-0.389-0.228-0.541z"></path>
<path fill="#889099" style="fill: var(--color1, #889099)" d="M4.615 16.923c0 0.425 0.15 0.787 0.451 1.088s0.663 0.451 1.088 0.451c0.425 0 0.787-0.15 1.088-0.451s0.451-0.663 0.451-1.088-0.15-0.787-0.451-1.088c-0.3-0.3-0.663-0.451-1.088-0.451s-0.787 0.15-1.088 0.451c-0.3 0.301-0.451 0.663-0.451 1.088z"></path>
</symbol>
<symbol id="icon-delivery-truck" viewBox="0 0 21 20">
<path fill="#889099" style="fill: var(--color1, #889099)" d="M0.721 12.337v-8.509c0-0.473 0.394-0.856 0.88-0.856h8.741c0.486 0 0.88 0.383 0.88 0.856v8.509c0 0.158-0.131 0.285-0.293 0.285h-9.914c-0.162 0-0.293-0.128-0.293-0.285zM7.78 15.252c0 0.981-0.817 1.776-1.825 1.776s-1.825-0.795-1.825-1.776c0-0.981 0.817-1.776 1.825-1.776s1.825 0.795 1.825 1.776zM6.867 15.252c0-0.49-0.409-0.888-0.913-0.888s-0.913 0.397-0.913 0.888c0 0.49 0.409 0.888 0.913 0.888s0.913-0.398 0.913-0.888zM4.383 13.477h-4.090c-0.162 0-0.293 0.128-0.293 0.285v0.866c0 0.158 0.131 0.285 0.293 0.285h3.278c0.086-0.571 0.382-1.076 0.812-1.437zM17.329 15.252c0 0.981-0.817 1.776-1.825 1.776s-1.825-0.795-1.825-1.776c0-0.981 0.817-1.776 1.825-1.776s1.825 0.795 1.825 1.776zM16.417 15.252c0-0.49-0.409-0.888-0.913-0.888s-0.913 0.397-0.913 0.888c0 0.49 0.409 0.888 0.913 0.888s0.913-0.398 0.913-0.888zM20.556 13.762v0.866c0 0.158-0.131 0.285-0.293 0.285h-2.375c-0.17-1.133-1.172-2.007-2.383-2.007s-2.214 0.874-2.384 2.007h-4.782c-0.086-0.571-0.382-1.076-0.812-1.437h4.534v-8.163c0-0.315 0.263-0.571 0.587-0.571h2.769c0.78 0 1.508 0.377 1.945 1.006l1.785 2.573c0.262 0.377 0.402 0.822 0.402 1.278v3.878h0.714c0.162 0 0.293 0.128 0.293 0.285zM17.58 8.387l-1.428-1.974c-0.055-0.076-0.144-0.121-0.24-0.121h-2.227c-0.162 0-0.293 0.128-0.293 0.285v1.974c0 0.158 0.131 0.285 0.293 0.285h3.654c0.238 0 0.377-0.261 0.24-0.45z"></path>
</symbol>
<symbol id="icon-Vector-7" viewBox="0 0 12 20">
<path stroke-linejoin="miter" stroke-linecap="butt" stroke-miterlimit="4" stroke-width="2.2222" d="M1.111 1.111l8.889 8.345-8.889 9.433"></path>
</symbol>
</defs>
</svg>
